# xmcd
#
# Track frame offsets: 
#        150
#        12362
#        24364
#        37034
#        49320
#        60371
#        72685
#        84034
#        94858
#        106061
#        119103
#        135805
#        144845
#        157574
#        170218
#        182964
#        195570
#        207504
#        219838
#        234627
#        248979
#        261179
#        274211
#        287062
#        299575
#
# Disc length: 4158 seconds
#
# Revision: 1
# Processed by: cddbd v1.5.2PL0 Copyright (c) Steve Scherf et al.
# Submitted via: ExactAudioCopy v1.0b3
#
DISCID=71103c19
DTITLE=Champion Jack Dupree - 1941-1945 (Chicago, New York)
DYEAR=2009
DGENRE=Blues
TTITLE0=My Cabin Inn (Alt.) (1941)
TTITLE1=Bad Health Blues (Alt.) (1941)
TTITLE2=Gibing Blues (Alt.) (1941)
TTITLE3=Dupree Shake Dance (Alt.) (1941)
TTITLE4=My Baby's Gone (Alt.) (1941)
TTITLE5=Jackie P. Blues (Alt.) (1941)
TTITLE6=Black Cow Blues (Alt.) (1941)
TTITLE7=Jitterburg (1942)
TTITLE8=Slow Boogie (1942)
TTITLE9=Mexico Reminiscences (1942)
TTITLE10=Too Evil To Cry (1944)
TTITLE11=Clog Dance (Stomping Blues) (1944)
TTITLE12=Rum Cola Blues (1945)
TTITLE13=She Makes Good Jelly (1945)
TTITLE14=Johnson Street Boogie Woogie (1945)
TTITLE15=I'm Going Down With You (1945)
TTITLE16=F.D.R. Blues (1945)
TTITLE17=God Bless Our New President (1945)
TTITLE18=County Jail Special (1945)
TTITLE19=Fisherman's Blues (1945)
TTITLE20=Black Wolf (1945)
TTITLE21=Lover's Lane (1945)
TTITLE22=Walkin' By Myself (1945)
TTITLE23=Outside Man (1945)
TTITLE24=Forget It Mama (1945)
EXTD=YEAR: 2009
EXTT0=
EXTT1=
EXTT2=
EXTT3=
EXTT4=
EXTT5=
EXTT6=
EXTT7=
EXTT8=
EXTT9=
EXTT10=
EXTT11=
EXTT12=
EXTT13=
EXTT14=
EXTT15=
EXTT16=
EXTT17=
EXTT18=
EXTT19=
EXTT20=
EXTT21=
EXTT22=
EXTT23=
EXTT24=
PLAYORDER=
